<svg width="23" height="24" viewBox="0 0 23 24" fill="none" xmlns="http://www.w3.org/2000/svg">
<g clip-path="url(#clip0_289_549)">
<path fill-rule="evenodd" clip-rule="evenodd" d="M11.4673 0.977295C5.26981 0.977295 0.259766 6.02428 0.259766 12.2681C0.259766 17.2591 3.46987 21.4839 7.92315 22.9791C8.47992 23.0916 8.68386 22.7362 8.68386 22.4373C8.68386 22.1755 8.66551 21.2783 8.66551 20.3435C5.54785 21.0166 4.89863 18.9975 4.89863 18.9975C4.3976 17.689 3.65524 17.3527 3.65524 17.3527C2.63483 16.661 3.72956 16.661 3.72956 16.661C4.86146 16.7358 5.4554 17.82 5.4554 17.82C6.45723 19.5396 8.07157 19.0537 8.72103 18.7546C8.81371 18.0255 9.11079 17.5208 9.42623 17.2405C6.93967 16.9787 4.3235 16.0067 4.3235 11.6698C4.3235 10.436 4.76855 9.42663 5.47376 8.64159C5.36249 8.36126 4.97273 7.20206 5.58525 5.65057C5.58525 5.65057 6.53156 5.35142 8.66528 6.80954C9.57881 6.56239 10.5209 6.43666 11.4673 6.4356C12.4136 6.4356 13.3782 6.5666 14.269 6.80954C16.403 5.35142 17.3493 5.65057 17.3493 5.65057C17.9618 7.20206 17.5718 8.36126 17.4606 8.64159C18.1843 9.42663 18.611 10.436 18.611 11.6698C18.611 16.0067 15.9949 16.9599 13.4897 17.2405C13.8981 17.5956 14.2505 18.2685 14.2505 19.3341C14.2505 20.8482 14.2321 22.0633 14.2321 22.4371C14.2321 22.7362 14.4363 23.0916 14.9928 22.9794C19.4461 21.4836 22.6562 17.2591 22.6562 12.2681C22.6746 6.02428 17.6462 0.977295 11.4673 0.977295Z" fill="white"/>
</g>
<defs>
<clipPath id="clip0_289_549">
<rect width="22.3965" height="22.3965" fill="white" transform="translate(0.259766 0.977295)"/>
</clipPath>
</defs>
</svg>
