<svg width="101" height="42" viewBox="0 0 101 42" fill="none" xmlns="http://www.w3.org/2000/svg">
<path d="M35.6264 6.20551C36.3272 6.20551 36.8759 6.41706 37.2725 6.84015C37.6758 7.26324 37.8774 7.84169 37.8774 8.5755V11.8181H35.9338V8.83332C35.9338 8.53583 35.8512 8.30445 35.6859 8.13918C35.5207 7.97391 35.2959 7.89127 35.0116 7.89127C34.7274 7.89127 34.5026 7.97391 34.3373 8.13918C34.1721 8.30445 34.0894 8.53583 34.0894 8.83332V11.8181H32.1458V8.83332C32.1458 8.53583 32.0632 8.30445 31.8979 8.13918C31.7393 7.97391 31.5178 7.89127 31.2335 7.89127C30.9427 7.89127 30.7146 7.97391 30.5493 8.13918C30.384 8.30445 30.3014 8.53583 30.3014 8.83332V11.8181H28.3578V6.25509H30.3014V6.98889C30.4733 6.7509 30.6947 6.5625 30.9658 6.42367C31.2434 6.27823 31.5608 6.20551 31.9178 6.20551C32.3276 6.20551 32.6912 6.29476 33.0085 6.47325C33.3325 6.65174 33.587 6.90295 33.7721 7.22688C33.9704 6.92279 34.2315 6.67819 34.5555 6.49308C34.8794 6.30137 35.2364 6.20551 35.6264 6.20551ZM38.6249 9.03164C38.6249 8.4565 38.7274 7.95408 38.9323 7.52437C39.1439 7.09467 39.4282 6.76413 39.7851 6.53275C40.1487 6.30137 40.552 6.18568 40.9949 6.18568C41.3784 6.18568 41.7089 6.2617 41.9866 6.41375C42.2642 6.5658 42.4791 6.77074 42.6311 7.02856V6.25509H44.5747V11.8181H42.6311V11.0446C42.4791 11.3025 42.2609 11.5074 41.9766 11.6595C41.699 11.8115 41.3717 11.8875 40.9949 11.8875C40.552 11.8875 40.1487 11.7718 39.7851 11.5405C39.4282 11.3091 39.1439 10.9785 38.9323 10.5488C38.7274 10.1125 38.6249 9.60679 38.6249 9.03164ZM42.6311 9.03164C42.6311 8.67466 42.532 8.3937 42.3336 8.18876C42.1419 7.98383 41.9039 7.88136 41.6197 7.88136C41.3288 7.88136 41.0875 7.98383 40.8958 8.18876C40.7041 8.38709 40.6082 8.66805 40.6082 9.03164C40.6082 9.38863 40.7041 9.6729 40.8958 9.88444C41.0875 10.0894 41.3288 10.1918 41.6197 10.1918C41.9039 10.1918 42.1419 10.0894 42.3336 9.88444C42.532 9.67951 42.6311 9.39524 42.6311 9.03164ZM45.3649 9.03164C45.3649 8.4565 45.4674 7.95408 45.6723 7.52437C45.8839 7.09467 46.1714 6.76413 46.535 6.53275C46.8986 6.30137 47.3019 6.18568 47.7448 6.18568C48.1018 6.18568 48.4191 6.2617 48.6968 6.41375C48.981 6.55919 49.2025 6.76082 49.3612 7.01864V4.48008H51.3147V11.8181H49.3612V11.0446C49.2091 11.3025 48.9943 11.5074 48.7166 11.6595C48.4389 11.8115 48.1117 11.8875 47.7349 11.8875C47.292 11.8875 46.8887 11.7718 46.5251 11.5405C46.1681 11.3091 45.8839 10.9785 45.6723 10.5488C45.4674 10.1125 45.3649 9.60679 45.3649 9.03164ZM49.3711 9.03164C49.3711 8.67466 49.2719 8.3937 49.0736 8.18876C48.8819 7.98383 48.6439 7.88136 48.3596 7.88136C48.0687 7.88136 47.8274 7.98383 47.6357 8.18876C47.444 8.38709 47.3482 8.66805 47.3482 9.03164C47.3482 9.38863 47.444 9.6729 47.6357 9.88444C47.8274 10.0894 48.0687 10.1918 48.3596 10.1918C48.6439 10.1918 48.8819 10.0894 49.0736 9.88444C49.2719 9.67951 49.3711 9.39524 49.3711 9.03164ZM57.7373 8.97215C57.7373 9.1242 57.7274 9.27625 57.7076 9.4283H54.0286C54.0485 9.73239 54.1311 9.96047 54.2765 10.1125C54.4286 10.258 54.6203 10.3307 54.8517 10.3307C55.1756 10.3307 55.407 10.1852 55.5458 9.89436H57.6183C57.5324 10.2778 57.3638 10.6216 57.1126 10.9257C56.868 11.2231 56.5573 11.4578 56.1804 11.6297C55.8036 11.8016 55.3871 11.8875 54.931 11.8875C54.3823 11.8875 53.8931 11.7718 53.4634 11.5405C53.0403 11.3091 52.7064 10.9785 52.4618 10.5488C52.2239 10.1191 52.1049 9.6134 52.1049 9.03164C52.1049 8.44989 52.2239 7.94747 52.4618 7.52437C52.6998 7.09467 53.0304 6.76413 53.4535 6.53275C53.8832 6.30137 54.3757 6.18568 54.931 6.18568C55.4797 6.18568 55.9656 6.29806 56.3887 6.52283C56.8118 6.7476 57.1423 7.07153 57.3803 7.49462C57.6183 7.91111 57.7373 8.40361 57.7373 8.97215ZM55.754 8.48625C55.754 8.24826 55.6747 8.06316 55.5161 7.93094C55.3574 7.79211 55.1591 7.7227 54.9211 7.7227C54.6831 7.7227 54.4881 7.78881 54.336 7.92102C54.184 8.04663 54.0848 8.23504 54.0385 8.48625H55.754ZM62.3743 7.02856C62.5264 6.76413 62.7412 6.55919 63.0189 6.41375C63.2965 6.2617 63.6238 6.18568 64.0006 6.18568C64.4435 6.18568 64.8435 6.30137 65.2005 6.53275C65.564 6.76413 65.8483 7.09467 66.0533 7.52437C66.2648 7.95408 66.3706 8.4565 66.3706 9.03164C66.3706 9.60679 66.2648 10.1125 66.0533 10.5488C65.8483 10.9785 65.564 11.3091 65.2005 11.5405C64.8435 11.7718 64.4435 11.8875 64.0006 11.8875C63.6238 11.8875 63.2965 11.8148 63.0189 11.6694C62.7412 11.5173 62.5264 11.3091 62.3743 11.0446V11.8181H60.4307V4.48008H62.3743V7.02856ZM64.3972 9.03164C64.3972 8.66805 64.2981 8.38709 64.0997 8.18876C63.908 7.98383 63.67 7.88136 63.3858 7.88136C63.1015 7.88136 62.8602 7.98383 62.6619 8.18876C62.4702 8.3937 62.3743 8.67466 62.3743 9.03164C62.3743 9.39524 62.4702 9.67951 62.6619 9.88444C62.8602 10.0894 63.1015 10.1918 63.3858 10.1918C63.67 10.1918 63.908 10.0894 64.0997 9.88444C64.2981 9.6729 64.3972 9.38863 64.3972 9.03164ZM73.1601 6.25509L69.6299 14.4658H67.5178L68.8465 11.5801L66.5658 6.25509H68.7275L69.8977 9.40846L71.0281 6.25509H73.1601Z" fill="white"/>
<path d="M17.5257 41.4297H12.0761C11.7857 40.7214 11.4959 40.0144 11.2061 39.3074C9.69789 35.6284 8.18908 31.9495 6.68515 28.2687C6.65647 28.1987 6.65525 28.0994 6.68088 28.0288C7.47281 25.8705 8.27023 23.7134 9.06643 21.557C9.0829 21.5119 9.10303 21.4675 9.13781 21.3834C11.9407 28.083 14.7295 34.7466 17.5257 41.4291V41.4297Z" fill="#FF7629"/>
<path d="M0.750062 41.4297H1.31442C4.01174 34.9829 6.70234 28.5531 9.40576 22.0917C9.34048 21.9132 9.27459 21.7354 9.20869 21.557C9.19222 21.5119 9.17209 21.4681 9.13731 21.3834C6.33444 28.083 3.54622 34.7472 0.750062 41.4297Z" fill="#FF7629"/>
<g clip-path="url(#clip0_289_520)">
<path d="M1.29498 41.4297H1.85934C4.55666 34.9829 7.24726 28.5531 9.95068 22.0917C9.8854 21.9132 9.81951 21.7354 9.75362 21.557C9.73714 21.5119 9.71701 21.4681 9.68223 21.3834C6.87936 28.083 4.09114 34.7472 1.29498 41.4297Z" fill="#FF7629"/>
</g>
<path d="M26.3477 41.4318H21.6411V21.3866H26.3477V41.4318Z" fill="#FF7629"/>
<path d="M29.9494 31.3989C30.6066 31.5086 31.27 31.5891 31.9192 31.7356C33.0802 31.9981 34.1527 32.4608 35.0949 33.214C35.8001 33.7783 36.2179 34.5066 36.4549 35.3565C36.6887 36.1983 36.7417 37.0632 36.7691 37.9299C36.7934 38.7081 36.791 39.4876 36.839 40.2645C36.8614 40.6268 36.9543 40.9897 37.0528 41.3414C37.127 41.607 37.3241 41.7897 37.6022 41.9001C37.5068 41.9119 37.412 41.9281 37.3166 41.9337C36.3657 41.9911 35.4322 41.9369 34.5262 41.5939C33.425 41.1768 32.8058 40.3699 32.5614 39.2475C32.4118 38.5603 32.3662 37.8613 32.3425 37.1605C32.322 36.5538 32.3139 35.9458 32.2783 35.3397C32.2471 34.7954 32.1792 34.2516 31.9666 33.7428C31.7402 33.2009 31.3243 32.805 30.894 32.4259C30.3815 31.9744 29.8003 31.6402 29.1313 31.435C29.1531 31.4157 29.1643 31.397 29.1793 31.3933C29.8671 31.2137 30.3541 30.771 30.7307 30.1936C31.2002 29.474 31.416 28.664 31.522 27.8228C31.6354 26.9237 31.6548 26.022 31.5326 25.121C31.4322 24.3839 31.2283 23.6775 30.8304 23.0427C30.2736 22.1541 29.4842 21.5911 28.4429 21.3834C28.8881 21.4271 29.3352 21.4558 29.7779 21.5181C30.9882 21.6877 32.1611 21.9876 33.2392 22.5844C34.124 23.0739 34.8405 23.7317 35.2608 24.672C35.5769 25.3804 35.6667 26.1268 35.6037 26.8937C35.5626 27.3919 35.4746 27.8802 35.287 28.3478C34.8823 29.3574 34.1733 30.0882 33.218 30.5845C32.269 31.0777 31.247 31.3141 30.1857 31.3933C30.1046 31.3995 30.0236 31.4113 29.9425 31.4207C29.945 31.4132 29.9475 31.4064 29.95 31.3989H29.9494Z" fill="#FF7629"/>
<path d="M49.066 21.3858C49.0571 21.4097 49.0559 21.4426 49.0391 21.4563C48.655 21.7759 48.4089 22.1965 48.1962 22.6362C47.7057 23.6477 47.447 24.729 47.2666 25.8306C46.855 28.3452 46.8197 30.8783 46.9159 33.4161C46.9691 34.8278 47.1035 36.233 47.3867 37.6196C47.5952 38.6406 47.873 39.6389 48.3981 40.5517C48.5696 40.8498 48.756 41.1372 49.026 41.36C49.0469 41.3774 49.0523 41.4132 49.0648 41.4407L49.066 41.4419C48.7488 41.3003 48.4274 41.1665 48.1143 41.0165C46.5652 40.2739 45.2055 39.2762 44.0805 37.975C42.958 36.6768 42.2112 35.1833 41.9029 33.4938C41.5552 31.588 41.6849 29.7121 42.3856 27.8911C42.8504 26.6838 43.5327 25.6126 44.4043 24.6597C45.69 23.2546 47.2278 22.2055 48.9651 21.439C49.0009 21.4235 49.0344 21.4019 49.069 21.3834L49.0678 21.3864L49.066 21.3858Z" fill="#FF7629"/>
<path d="M54.1435 21.3877C55.1555 21.816 56.103 22.3585 56.9878 23.0097C58.3649 24.0229 59.503 25.2512 60.3232 26.7579C60.8675 27.7574 61.2223 28.825 61.3884 29.9523C61.6519 31.7386 61.4966 33.4843 60.8436 35.1732C60.3883 36.3513 59.7097 37.3938 58.8446 38.3121C57.5619 39.673 56.0337 40.6749 54.3036 41.3751C54.2468 41.3978 54.1817 41.4008 54.1208 41.4133L54.1172 41.4175C54.2922 41.2365 54.4918 41.074 54.6375 40.872C55.1047 40.222 55.3736 39.4794 55.597 38.7177C55.9083 37.6555 56.0737 36.5664 56.1944 35.4689C56.4023 33.5715 56.4244 31.6681 56.3641 29.7642C56.3103 28.0735 56.1628 26.3905 55.7697 24.7392C55.5624 23.8676 55.3001 23.0127 54.8311 22.2372C54.6531 21.9427 54.4535 21.6643 54.1793 21.4486C54.1638 21.4361 54.1572 21.4116 54.1465 21.3931L54.1435 21.3895V21.3877Z" fill="#FF7629"/>
<path d="M49.0678 21.3834C49.0708 21.3871 49.0733 21.392 49.077 21.3933C49.0795 21.3939 49.0838 21.3896 49.0869 21.3877C49.0801 21.3877 49.0733 21.3871 49.0659 21.3865L49.0672 21.3834H49.0678Z" fill="#FF7629"/>
<path d="M49.0635 41.4402C49.0727 41.4384 49.082 41.4359 49.0918 41.4341C49.0826 41.4365 49.0739 41.439 49.0647 41.4421L49.0635 41.4409V41.4402Z" fill="#FF7629"/>
<path d="M54.1467 21.3914L54.1357 21.3932C54.1357 21.3932 54.1437 21.3883 54.1437 21.3877L54.1467 21.3907V21.3914Z" fill="#FF7629"/>
<path d="M54.1213 41.412C54.1213 41.4156 54.1213 41.4199 54.1213 41.4236C54.1201 41.4211 54.1189 41.4187 54.1177 41.4163L54.1213 41.412Z" fill="#FF7629"/>
<path d="M82.4016 41.4297H76.9521C76.6617 40.7214 76.3719 40.0144 76.0821 39.3074C74.5739 35.6284 73.0651 31.9495 71.5611 28.2687C71.5324 28.1987 71.5312 28.0994 71.5569 28.0288C72.3488 25.8705 73.1462 23.7134 73.9424 21.557C73.9589 21.5119 73.979 21.4675 74.0138 21.3834C76.8167 28.083 79.6055 34.7466 82.4016 41.4291V41.4297Z" fill="#FF7629"/>
<path d="M65.626 41.4297H66.1904C68.8877 34.9829 71.5783 28.5531 74.2817 22.0917C74.2165 21.9132 74.1506 21.7354 74.0847 21.557C74.0682 21.5119 74.0481 21.4681 74.0133 21.3834C71.2104 28.083 68.4222 34.7472 65.626 41.4297Z" fill="#FF7629"/>
<g clip-path="url(#clip1_289_520)">
<path d="M66.171 41.4297H66.7353C69.4326 34.9829 72.1232 28.5531 74.8267 22.0917C74.7614 21.9132 74.6955 21.7354 74.6296 21.557C74.6131 21.5119 74.593 21.4681 74.5582 21.3834C71.7553 28.083 68.9671 34.7472 66.171 41.4297Z" fill="#FF7629"/>
</g>
<path d="M86.5274 21.3865C86.6745 21.3865 86.8042 21.3865 86.9333 21.3865C88.1536 21.3865 89.3745 21.3884 90.5948 21.3834C90.7133 21.3834 90.7819 21.4233 90.8492 21.5162C93.9227 25.7614 96.9987 30.0052 100.072 34.2504C100.12 34.3171 100.161 34.4075 100.161 34.4867C100.166 36.921 100.165 39.3554 100.165 41.7897V41.9163C100.104 41.8402 100.067 41.7966 100.033 41.7517C97.3622 38.2473 94.6909 34.7436 92.0202 31.2386C90.2144 28.8691 88.4093 26.5003 86.6059 24.1289C86.5623 24.0709 86.5205 23.9924 86.5205 23.9231C86.5149 23.1131 86.5168 22.3038 86.5174 21.4938C86.5174 21.4639 86.5224 21.4339 86.5274 21.3853V21.3865Z" fill="#FF7629"/>
<rect x="86.5166" y="23.1367" width="1.14529" height="18.3278" fill="#FF7629"/>
<rect x="99.02" y="21.3834" width="1.14529" height="18.3278" fill="#FF7629"/>
<defs>
<clipPath id="clip0_289_520">
<rect width="8.66363" height="17.0519" fill="white" transform="translate(1.28467 24.39)"/>
</clipPath>
<clipPath id="clip1_289_520">
<rect width="8.66363" height="17.0519" fill="white" transform="translate(66.1606 24.39)"/>
</clipPath>
</defs>
</svg>
